<?xml version="1.0" encoding="utf-8"?>
<!-- Generator: Adobe Illustrator 16.0.0, SVG Export Plug-In . SVG Version: 6.00 Build 0)  -->
<!DOCTYPE svg PUBLIC "-//W3C//DTD SVG 1.1//EN" "http://www.w3.org/Graphics/SVG/1.1/DTD/svg11.dtd">
<svg version="1.1" id="Layer_1" xmlns="http://www.w3.org/2000/svg" xmlns:xlink="http://www.w3.org/1999/xlink" x="0px" y="0px"
	 width="396.85px" height="283.46px" viewBox="0 0 396.85 283.46" enable-background="new 0 0 396.85 283.46" xml:space="preserve">
<g>
	<path fill="#9CB33C" d="M93.937,40.841c0,0,0.529-2.782-2.38-8.5c-1.943-3.818-11.9-11.22-11.9-11.22s9.18,0,19.051,6.489
		c8.051,5.292,11.519,12.288,11.519,12.288s3.84-4.389,3.84-11.52c0-7.132-0.526-20.818-0.526-20.818s-0.439-4.791,7.46-4.389
		c9.212,0.469,8.558,5.267,8.558,5.267l2.611,36.397c0,0,4.937-3.84,15.908-3.84c10.972,0,17.452,3.739,26.778,3.739
		c9.325,0,20.739-3.553,20.739-3.553s-4.728,11.334-13.505,12.979c-8.778,1.646-20.846,0.381-20.846,0.381s4.937,5.654,6.583,10.042
		c1.646,4.389,0.567,9.618,0.567,9.618s-9.777-12.335-22.729-15.213c-11.849-2.633-15.36-0.439-21.906,5.924
		c-5.019,4.879-15.177,6.583-15.177,6.583s6.582-17.115-6.583-17.335c-14.971-0.249-21.943,6.035-27.977,9.875
		c-6.034,3.84-12.617,11.452-12.617,11.452s0.549-8.71,2.194-13.098c1.646-4.389,4.937-9.326,4.937-9.326s-4.195-2.585-16.078-1.002
		c-8.318,1.107-20.74,9.18-20.74,9.18s10.408-19.701,31.959-22.78C80.337,36.081,93.937,40.841,93.937,40.841"/>
	<path fill="#DA2037" d="M31.175,200.394c-8.199,6.469-14.164,15.354-12.734,28.013c2.614,23.135,15.669,29.902,32.315,38.834
		c20.06,10.765,67.596,11.963,99.927,8.462c30.6-3.313,54.082-11.842,65.616-26.887c13.04-17.008,13.662-37.665,7.039-52.724
		c-4.487-10.205-14.686-15.274-14.686-15.274s-9.351,2.236-18.53,2.406c-6.8,0.126-16.149-0.68-16.149-0.68s-28.05,9.35-56.439,13.6
		c-26.598,3.982-46.41,5.78-61.369,6.12C43.389,202.554,31.175,200.394,31.175,200.394"/>
	<path fill="#DA2037" d="M117.133,148.619c14.11,2.078,21.729,3.415,32.129,3.57c7.48,0.112,51.682-14.874,58.65-20.144
		c0,0,11.789-6.537,13.235-18.799c1.772-15.016-0.916-27.371-9.384-37.911c-16.5-20.537-42.01-16.57-42.01-16.57
		s2.38,3.06,3.06,9.18c0.68,6.119-3.74,12.919-3.74,12.919s-5.27-5.842-7.99-8.499c-2.72-2.658-8.84-6.63-16.15-9.18
		c-6.323-2.206-13.77,0.85-19.889,6.97c-6.12,6.119-22.44,6.289-22.44,6.289s3.23-11.899,0.85-14.959c-2.38-3.06-8.5-1.7-19.04,2.72
		c-10.54,4.42-24.819,19.379-24.819,19.379s-3.4-4.76-3.4-11.559c0-6.8,3.06-15.205,3.06-15.205s-23.698,6.188-32.878,21.916
		c-9.18,15.729-7.396,29.508-3.321,40.981c2.656,7.48,13.497,11.648,13.497,11.648s23.8,7.14,48.959,12.324
		C85.513,143.689,104.239,146.721,117.133,148.619"/>
	<path fill="#9CB33C" d="M35.534,133.745c0,0-0.68,6.8,0,14.489c0.4,4.519,1.7,10.671,1.7,10.671s9.154,2.839,19.053,5.853
		c10.637,3.24,19.536,3.156,19.536,3.156s11.618-0.805,34.68-5.609c16.32-3.399,31.789-6.46,31.789-6.46s-9.52,0-24.117-2.605
		c-25.971-4.636-41.446-7.734-55.951-11.334C47.718,138.305,35.534,133.745,35.534,133.745"/>
	<path fill="#9CB33C" d="M181.562,179.617c0,0,11.459,0.015,16.49-0.85s9.915-2.746,9.86-5.077c-0.056-2.331,0-6.606,0-6.606
		s-3.607,3.746-10,6.736C191.518,176.811,181.562,179.617,181.562,179.617"/>
	<path fill="#9CB33C" d="M27.538,146.325c0,0-20.06,5.864-22.245,12.372c-1.525,4.542,0.443,7.566,3.452,9.936
		c6.213,4.892,11.823,3.502,11.823,3.502l10.264-4.011c0,0-2.274-4.459-3.124-9.899C27.038,153.939,27.538,146.325,27.538,146.325"
		/>
	<path fill="#DA2037" d="M37.201,162.61l0.85,8.879c0,0,3.116,0.18,8.67-0.039c12.92-0.511,18.984-1.36,18.984-1.36
		s-7.958-1.809-17.284-4.25C43.769,164.622,41.507,163.9,37.201,162.61"/>
	<path fill="#9CB33C" d="M9.354,171.863c-5.371-2.654-6.97-8.539-6.97-8.539s-0.865,5.744,0,9.86
		c1.18,5.61,1.362,8.381,10.88,15.811c6.97,5.438,18.383,8.129,29.071,8.151c10.689,0.024,51.893-1.211,81.155-7.655
		c29.263-6.442,62.307-12.804,72.105-18.542c9.798-5.737,12.342-7.73,12.315-10.345c-0.016-1.572,0-24.089,0-24.089
		c-0.763,1.217-8.02,5.414-19.806,9.493c-11.786,4.08-36.534,12.917-65.838,18.87c-29.303,5.954-39.508,6.802-54.815,8.073
		c-15.308,1.271-30.728,2.782-39.738,2.612C19.889,175.417,16.154,175.225,9.354,171.863"/>
	<path fill="#FFFFFF" d="M50.038,138.36l-1.026,4.603c0,0-0.368,0.98,0.572,1.252c1.154,0.334,1.293-0.756,1.293-0.756l1.259-4.674
		L50.038,138.36z"/>
	<path fill="#FFFFFF" d="M64.873,142.055l-1.026,4.603c0,0-0.368,0.98,0.572,1.252c1.154,0.335,1.293-0.756,1.293-0.756l1.259-4.674
		L64.873,142.055z"/>
	<path fill="#FFFFFF" d="M79.708,145.522l-1.026,4.604c0,0-0.368,0.979,0.572,1.252c1.154,0.334,1.293-0.757,1.293-0.757
		l1.259-4.674L79.708,145.522z"/>
	<path fill="#FFFFFF" d="M94.542,148.481l-1.026,4.604c0,0-0.368,0.979,0.572,1.252c1.154,0.334,1.293-0.756,1.293-0.756
		l1.259-4.674L94.542,148.481z"/>
	<path fill="#FFFFFF" d="M110.908,151.441l-1.026,4.603c0,0-0.368,0.98,0.572,1.252c1.154,0.334,1.293-0.756,1.293-0.756
		l1.259-4.674L110.908,151.441z"/>
	<path fill="#FFFFFF" d="M26.512,175.024l0.118,4.716c0,0-0.12,1.04,0.858,1.075c1.201,0.045,1.072-1.046,1.072-1.046l0.091-4.84
		L26.512,175.024z"/>
	<path fill="#FFFFFF" d="M46.203,174.048l0.446,4.694c0,0-0.047,1.046,0.932,1.015c1.2-0.04,0.996-1.118,0.996-1.118l-0.247-4.835
		L46.203,174.048z"/>
	<path fill="#FFFFFF" d="M66.142,172.801l0.446,4.694c0,0-0.047,1.046,0.932,1.015c1.2-0.04,0.996-1.118,0.996-1.118l-0.247-4.835
		L66.142,172.801z"/>
	<path fill="#FFFFFF" d="M86.082,170.823l0.446,4.695c0,0-0.047,1.046,0.932,1.014c1.2-0.04,0.996-1.118,0.996-1.118l-0.247-4.835
		L86.082,170.823z"/>
	<path fill="#FFFFFF" d="M106.021,167.846l0.446,4.695c0,0-0.047,1.046,0.932,1.014c1.2-0.039,0.996-1.117,0.996-1.117l-0.247-4.835
		L106.021,167.846z"/>
	<path fill="#FFFFFF" d="M126.042,163.531l0.446,4.695c0,0-0.047,1.046,0.932,1.014c1.2-0.04,0.996-1.118,0.996-1.118l-0.247-4.835
		L126.042,163.531z"/>
	<path fill="#FFFFFF" d="M145.899,158.609l0.446,4.694c0,0-0.047,1.046,0.932,1.015c1.2-0.04,0.996-1.118,0.996-1.118l-0.247-4.835
		L145.899,158.609z"/>
	<path fill="#FFFFFF" d="M165.757,152.655l0.446,4.695c0,0-0.047,1.046,0.932,1.014c1.2-0.04,0.996-1.118,0.996-1.118l-0.247-4.835
		L165.757,152.655z"/>
	<path fill="#FFFFFF" d="M185.778,146.229l0.446,4.695c0,0-0.047,1.046,0.932,1.014c1.2-0.04,0.996-1.118,0.996-1.118l-0.247-4.835
		L185.778,146.229z"/>
	<path fill="#DA2037" d="M262.916,75.18c-2.53,1.827-5.421,2.854-8.668,3.081c-0.662,0.047-1.325,0.066-1.988,0.057l-1.072-1.08
		l-0.999-14.288c0.789-0.769,1.996-1.212,3.62-1.326l-0.082,0.006l0.164-0.011l0.745,0.03c1.431,0.011,2.532,0.029,3.305,0.058
		c0.771,0.028,1.802,0.603,3.091,1.723c1.287,1.12,2.108,2.039,2.461,2.757c0.353,0.718,0.583,1.844,0.69,3.376
		C264.34,71.808,263.917,73.68,262.916,75.18 M283.92,63.892c-0.449-0.903-0.827-1.592-1.136-2.066
		c-2.23-3.584-5.3-6.175-9.207-7.773c-3.566-1.454-8.351-2.193-14.347-2.214c-0.548,0.038-5.455,0.272-14.721,0.699
		c-0.643,0.265-1.921,0.464-3.836,0.598c-2.574,0.18-4.274,0.658-5.1,1.43c1.289,8.986,2.393,20.048,3.312,33.186l2.446,34.98
		l0.972,0.922c1.744-0.233,4.072-0.368,6.985-0.406c3.514-0.081,5.818-0.16,6.914-0.236c1.86-0.13,3.523-0.357,4.986-0.679
		c0.407-0.469,0.59-1.004,0.548-1.606c-0.022-0.328-0.141-0.829-0.353-1.502s-0.306-1.203-0.276-1.59l-0.022-0.328
		c-0.849-2.692-1.528-6.11-2.037-10.254c-0.353-3.441-0.704-6.909-1.059-10.405l0.807-1.459c4.636-2.14,8.161-3.651,10.573-4.536
		c5.359-2.024,8.828-3.559,10.405-4.605c4.046-2.703,5.829-7.504,5.346-14.401C284.877,68.144,284.476,65.559,283.92,63.892"/>
	<path fill="#DA2037" d="M312.293,79.782c-1.038,0.396-3.312,0.716-6.819,0.963l-1.038-0.889l0.371-14.825
		c0.444-0.247,0.938-0.37,1.482-0.37c0.74,0,1.717,0.284,2.928,0.852c1.21,0.569,2.062,0.902,2.557,1.001
		c1.235,1.334,2.15,2.347,2.743,3.039c0.79,0.889,1.187,2.52,1.187,4.892C315.703,77.163,314.564,78.942,312.293,79.782
		 M335.197,113.878c-1.582-1.482-2.645-4.349-3.188-8.598l-0.816-6.449c-0.246-2.075-0.369-3.137-0.369-3.187
		c-0.94-3.508-2.769-6.053-5.485-7.635v-0.296c-0.05-0.642,0.358-1.136,1.223-1.483c0.864-0.345,1.544-0.593,2.038-0.741
		c4.546-2.668,6.819-6.646,6.819-11.934c0-3.013-0.791-5.93-2.372-8.746c-1.68-3.064-3.83-5.089-6.448-6.078
		c-1.582-0.494-2.793-0.84-3.632-1.038c-7.067-1.679-16.159-2.47-27.277-2.372h-3.336l-1.111,1.26c0,1.384,0.186,3.435,0.556,6.152
		c0.371,2.719,0.556,4.77,0.556,6.153l0.074,27.277v-2.669c-0.05,9.043-0.346,17.171-0.889,24.387l0.814,0.815l17.048-0.445
		l0.594-1.037c-0.741-6.82-1.087-13.243-1.037-19.272V95.57l1.037-0.964c3.706,0.741,6.274,2.669,7.709,5.782
		c0.69,1.532,1.407,4.744,2.149,9.636c0.642,4.299,1.68,7.412,3.113,9.339c2.865,0.543,5.262,0.815,7.19,0.815
		c2.864,0,5.286-0.568,7.264-1.704c0.098-0.248,0.147-0.519,0.147-0.816C337.568,116.621,336.777,115.36,335.197,113.878"/>
	<path fill="#DA2037" d="M278.366,128.721l-37.827,2.8l-1.156,1.369c2.093,20.168,3.502,37.156,4.226,50.963
		c0.132,2.501,0.259,4.919,0.381,7.257l0.866,0.854l13.779-0.722c1.27-0.885,1.854-2.306,1.751-4.263
		c-0.031-0.597-0.186-1.462-0.463-2.592c-0.278-1.13-0.432-1.993-0.463-2.592c-0.031-0.598-0.133-1.492-0.304-2.684
		c-0.174-1.188-0.273-2.083-0.306-2.682c-0.188-3.588,0.024-6.869,0.635-9.845c0.996-0.87,2.204-1.342,3.624-1.416
		c0.656-0.035,1.615-0.017,2.88,0.053c1.263,0.071,2.194,0.09,2.797,0.059c0.272-0.015,0.679-0.104,1.217-0.269
		c0.539-0.164,0.946-0.254,1.22-0.268c0.491-0.026,1.205,0.005,2.142,0.092c0.935,0.087,1.621,0.119,2.06,0.096
		c1.146-0.06,2.027-0.534,2.637-1.423c0.026-0.537,0.026-1.073-0.002-1.609c-0.045-0.853-0.22-2.09-0.521-3.708
		c-0.304-1.617-0.478-2.854-0.522-3.709c-0.05-0.962,0.009-1.902,0.18-2.822l-0.861-0.84l-21.384,1.121l-1.533-1.146
		c-0.021-0.38-0.121-0.988-0.3-1.824c-0.182-0.835-0.282-1.47-0.306-1.906c-0.079-1.521,0.38-2.636,1.38-3.343
		c2.328-0.339,4.988-0.588,7.981-0.745c3.373-0.177,7.435-0.253,12.182-0.229c4.097,0.059,5.898,0.1,5.408,0.126
		c1.143-0.061,1.686-0.661,1.625-1.802c-0.012-0.218-0.056-0.529-0.131-0.935c-0.076-0.405-0.119-0.715-0.131-0.933
		c-0.031-0.599-0.025-1.498,0.021-2.7c0.046-1.2,0.055-2.1,0.023-2.699C281.041,131.361,280.105,129.666,278.366,128.721"/>
	<path fill="#DA2037" d="M303.761,144.793h-2.594h-2.521h-2.224c-1.582,0.47-2.496,0.892-2.743,1.267
		c0.197,2.579,0.297,5.346,0.297,8.3c0,2.438-0.445,10.926-1.334,25.462c-0.198,2.908-0.297,4.596-0.297,5.064
		c0,0.703-0.099,1.7-0.296,2.989c-0.198,1.29-0.297,2.239-0.297,2.849c0,1.406,0.543,2.438,1.631,3.095l12.971-0.281l0.816-0.422
		c0.147-4.267,0.197-7.479,0.147-9.636v-16.952c0-8.394,0.396-15.286,1.187-20.679C307.368,145.146,305.787,144.793,303.761,144.793
		"/>
	<path fill="#DA2037" d="M372.038,135.25l-1.365-1.003c-2.883-0.252-4.147-0.573-8.586-0.961c-3.021-0.264-6.396-0.702-12.521-1.312
		c-6.127-0.61-10.699-1.048-13.72-1.312l-6.061-0.307c-1.694-0.148-2.518-0.22-2.472-0.216c-0.499-0.101-1.531-0.42-3.098-0.958
		c-1.349-0.404-2.412-0.64-3.19-0.708c-1.189-0.104-2.26,0.001-3.209,0.314c-0.534,1.888-0.945,4.482-1.233,7.779
		c-0.332,3.791-0.652,6.392-0.96,7.803l0.536,0.94l18.83,1.646l1.322,1.381c-0.387,3.885-0.732,9.411-1.039,16.576
		c-0.299,7.613-0.599,13.144-0.9,16.588c-0.194,2.215-0.377,4.309-0.549,6.277c0.219,0.663,0.784,1.036,1.7,1.116
		c1.189,0.104,1.891,0.264,2.103,0.48c0.558-0.051,1.203-0.043,1.935,0.021c0.732,0.063,1.813,0.232,3.242,0.507
		c1.428,0.272,2.509,0.441,3.241,0.506c1.327,0.117,2.532,0.048,3.615-0.204c-0.105-5.962,0.139-13.231,0.731-21.811
		c1.082-13.943,1.653-21.26,1.713-21.949l1.141-1.165l16.509,2.652l1.262-0.994L372.038,135.25z"/>
	<path fill="#9CB33C" d="M262.422,250.675c-0.881,1.019-2.131,1.457-3.75,1.314c-0.89-0.078-1.585-0.241-2.09-0.496
		c-0.254-0.126-0.57-0.415-0.951-0.864c-1.485-1.694-2.076-4.275-1.772-7.743c0.063-0.724,0.199-1.833,0.408-3.328
		c0.208-1.494,0.344-2.604,0.407-3.328c0.018-0.207,0.466-6.217,1.345-18.031c0.422-0.691,1.241-1.455,2.454-2.288
		c2.776,0.243,4.719,1.431,5.829,3.561c0.263,0.545,0.411,0.924,0.444,1.134c0.021,0.941,0.01,1.671-0.035,2.188
		c-0.036,3.96-0.28,8.527-0.733,13.703C263.603,240.792,263.082,245.518,262.422,250.675 M278.115,236.597
		c0.167-4.876,0.297-8.144,0.392-9.801c0.197-4.041,0.334-7.074,0.406-9.098c0.194-3.988-0.413-6.825-1.819-8.511
		c-1.92-2.353-5.34-4.421-10.262-6.205c-4.17-1.509-8.156-2.431-11.962-2.764c-4.525-0.396-8.348,0.362-11.469,2.274
		c-0.821,0.501-1.317,0.849-1.49,1.04c-0.173,0.194-0.476,0.688-0.906,1.482c-1.763,3.542-2.912,8.409-3.455,14.607
		c-0.096,1.084-0.239,2.736-0.434,4.956c-0.194,2.222-0.339,3.873-0.434,4.958c-0.091,1.033-0.229,2.608-0.413,4.726
		c-0.186,2.118-0.324,3.692-0.414,4.725c-0.42,4.804-0.369,8.659,0.154,11.566c0.765,4.282,2.377,7.623,4.836,10.023
		c2.458,2.4,6.851,3.877,13.176,4.432c6.325,0.553,11.754-0.195,16.286-2.244c1.185-0.521,1.917-0.9,2.198-1.135
		c0.278-0.236,0.717-0.796,1.312-1.681c2.027-3.049,3.307-7.594,3.836-13.637C277.866,243.887,278.02,240.646,278.115,236.597"/>
	<path fill="#9CB33C" d="M307.31,223.407c-1.038,0.396-3.312,0.717-6.819,0.964l-1.038-0.89l0.371-14.825
		c0.444-0.247,0.938-0.369,1.482-0.369c0.741,0,1.717,0.283,2.928,0.852c1.21,0.569,2.063,0.902,2.557,1.001
		c1.235,1.334,2.15,2.347,2.743,3.039c0.79,0.889,1.187,2.52,1.187,4.892C310.72,220.789,309.581,222.567,307.31,223.407
		 M330.214,257.504c-1.582-1.482-2.645-4.35-3.188-8.599l-0.816-6.448c-0.246-2.075-0.369-3.138-0.369-3.188
		c-0.94-3.508-2.769-6.053-5.485-7.635v-0.296c-0.05-0.643,0.358-1.136,1.223-1.483c0.864-0.345,1.544-0.593,2.038-0.741
		c4.546-2.668,6.819-6.646,6.819-11.934c0-3.013-0.791-5.93-2.372-8.746c-1.68-3.063-3.83-5.089-6.448-6.078
		c-1.582-0.494-2.793-0.84-3.632-1.038c-7.067-1.679-16.159-2.47-27.277-2.372h-3.336l-1.111,1.261c0,1.384,0.186,3.435,0.556,6.151
		c0.371,2.72,0.556,4.771,0.556,6.153l0.074,27.277v-2.669c-0.05,9.043-0.346,17.171-0.889,24.387l0.814,0.814l17.048-0.444
		l0.594-1.037c-0.741-6.82-1.087-13.243-1.037-19.272v-2.372l1.037-0.964c3.706,0.741,6.274,2.668,7.709,5.782
		c0.69,1.532,1.407,4.744,2.149,9.636c0.642,4.299,1.68,7.412,3.113,9.339c2.865,0.543,5.262,0.815,7.19,0.815
		c2.864,0,5.286-0.568,7.264-1.704c0.098-0.248,0.147-0.519,0.147-0.816C332.585,260.247,331.794,258.985,330.214,257.504"/>
	<path fill="#9CB33C" d="M371.662,248.289c-0.692,1.28-1.921,2.044-3.685,2.292c-0.97,0.137-1.752,0.135-2.353-0.008
		c-0.302-0.07-0.711-0.294-1.227-0.672c-1.999-1.408-3.257-3.963-3.778-7.664c-0.108-0.772-0.233-1.967-0.374-3.581
		c-0.141-1.613-0.266-2.806-0.375-3.58c-0.031-0.221-1.015-6.616-2.954-19.187c0.283-0.828,0.973-1.826,2.065-2.994
		c3.023-0.425,5.388,0.342,7.091,2.298c0.414,0.506,0.664,0.866,0.751,1.078c0.252,0.979,0.417,1.744,0.495,2.296
		c0.926,4.151,1.776,8.988,2.553,14.512C370.518,237.664,371.113,242.733,371.662,248.289 M384.995,229.727
		c-1.009-5.142-1.665-8.589-1.968-10.347c-0.772-4.275-1.366-7.479-1.78-9.613c-0.764-4.221-2.103-7.039-4.016-8.456
		c-2.622-1.992-6.778-3.318-12.47-3.981c-4.819-0.558-9.302-0.547-13.446,0.035c-4.93,0.693-8.827,2.421-11.695,5.186
		c-0.755,0.725-1.201,1.209-1.338,1.452c-0.137,0.244-0.34,0.835-0.608,1.771c-1.019,4.135-1.062,9.508-0.133,16.121
		c0.162,1.158,0.41,2.922,0.743,5.292s0.581,4.133,0.744,5.291c0.155,1.103,0.391,2.783,0.709,5.043
		c0.317,2.26,0.554,3.94,0.709,5.043c0.72,5.126,1.713,9.146,2.979,12.059c1.859,4.291,4.395,7.392,7.605,9.3
		c3.21,1.91,8.26,2.382,15.15,1.412c6.89-0.968,12.505-3.077,16.846-6.33c1.139-0.834,1.829-1.408,2.071-1.724
		c0.24-0.315,0.571-1.008,0.993-2.079c1.424-3.684,1.684-8.751,0.776-15.2C386.503,237.411,385.879,233.986,384.995,229.727"/>
	<path fill="#DA2037" d="M369.682,106.049c-0.961,1.089-2.329,1.556-4.104,1.401c-0.975-0.085-1.738-0.263-2.29-0.536
		c-0.278-0.136-0.627-0.446-1.045-0.929c-1.631-1.819-2.283-4.586-1.958-8.303c0.068-0.775,0.215-1.965,0.439-3.566
		c0.226-1.601,0.372-2.789,0.44-3.566c0.02-0.222,0.498-6.663,1.435-19.324c0.462-0.741,1.357-1.557,2.685-2.447
		c3.043,0.266,5.174,1.543,6.394,3.828c0.289,0.585,0.452,0.991,0.489,1.217c0.025,1.008,0.014,1.79-0.034,2.344
		c-0.03,4.245-0.289,9.141-0.773,14.687C370.955,95.458,370.396,100.522,369.682,106.049 M386.847,90.992
		c0.173-5.226,0.309-8.727,0.408-10.504c0.209-4.331,0.352-7.581,0.427-9.749c0.204-4.276-0.467-7.319-2.012-9.127
		c-2.107-2.526-5.858-4.75-11.255-6.673c-4.572-1.625-8.941-2.622-13.111-2.987c-4.959-0.434-9.146,0.371-12.561,2.414
		c-0.898,0.536-1.442,0.907-1.63,1.113c-0.189,0.207-0.521,0.736-0.991,1.586c-1.922,3.792-3.173,9.007-3.754,15.648
		c-0.101,1.162-0.256,2.934-0.464,5.313c-0.209,2.38-0.364,4.151-0.465,5.313c-0.098,1.107-0.245,2.795-0.443,5.064
		c-0.199,2.269-0.346,3.957-0.443,5.063c-0.45,5.147-0.386,9.28,0.193,12.397c0.846,4.591,2.619,8.176,5.319,10.754
		c2.697,2.578,7.513,4.171,14.443,4.777c6.932,0.607,12.877-0.184,17.838-2.371c1.298-0.555,2.1-0.96,2.406-1.211
		c0.306-0.253,0.784-0.852,1.436-1.799c2.215-3.263,3.606-8.132,4.174-14.607C386.589,98.805,386.751,95.333,386.847,90.992"/>
	<path fill="#DA2037" d="M299.506,129.431c0,0-4.797-0.587-5.277,2.291c-0.479,2.878-2.271,6.716,0,8.155
		c2.273,1.439,8.635,2.869,11.033,0.715c2.398-2.153,3.272-4.072,1.919-6.951C305.827,130.763,303.344,128.535,299.506,129.431"/>
	<path fill="#9CB33C" d="M387.566,133.761c-0.676-0.112-1.469-0.119-2.143-0.133c-1.157-0.024-2.503-0.124-3.603,0.238
		c-0.841,0.278-1.529,0.792-2.156,1.422c-0.484,0.489-0.67,0.789-0.796,1.442c-0.131,0.669-0.603,1.291-0.838,1.932
		c-0.119,0.325-0.154,0.672-0.264,0.995c-0.124,0.365-0.229,0.544-0.224,0.942c0.023,1.897-0.55,4.179,1.414,5.39
		c0.562,0.347,1.369,0.686,2.275,0.99c-0.185,0.433-0.37,0.864-0.518,1.207c-1.631,3.707-2.769,6.895-3.41,9.562
		c0.988,0.494,1.779,0.815,2.372,0.964c0.84,0.248,1.631,0.618,2.372,1.111c0.543,0.347,1.21,0.52,2.001,0.52
		c0.988,0,1.729-0.371,2.224-1.112c2.076-3.41,3.607-6.004,4.597-7.783c1.729-2.965,2.915-5.708,3.558-8.228
		c-0.061-0.049,0.195-1.913-0.727-4.143c-0.448-0.935-0.948-1.851-1.574-2.679c-0.457-0.605-1.122-1.57-1.872-1.806
		c-0.321-0.101-0.627-0.294-0.966-0.388c-0.51-0.141-1.045-0.313-1.56-0.414C387.677,133.78,387.623,133.77,387.566,133.761"/>
</g>
</svg>
